<svg id="Layer_1" data-name="Layer 1" xmlns="http://www.w3.org/2000/svg" viewBox="0 0 282.15 146.66"><defs><style>.cls-1{fill:#fff;}</style></defs><polygon class="cls-1" points="212.4 129.12 177.12 41.63 141.8 129.12 106.37 41.42 69.7 129.12 60.01 129.12 106.52 18.3 141.8 105.36 177.14 18.09 222.35 129.12 212.4 129.12"/><polygon class="cls-1" points="123.06 129.12 106.44 87.97 89.77 129.12 80.46 129.12 106.44 64.48 132.46 129.12 123.06 129.12"/><polygon class="cls-1" points="204.04 129.12 149.82 129.12 177.02 59.8 182.01 72.14 163.03 120.08 200.47 120.08 204.04 129.12"/><path class="cls-1" d="M278.84,188.64H61l.28-.69L121.35,42.2h97.36l.13.31Zm-216.37-1H277.34L218,43.2H122Z" transform="translate(-28.28 -42.11)"/><path class="cls-1" d="M264.88,179.37H74.93l.28-.69,52.36-127h84.89l.13.31Zm-188.46-1h187L211.79,52.69H128.24Z" transform="translate(-28.28 -42.11)"/><path class="cls-1" d="M274.73,185.89H65.09L123.2,45h93.67Zm-202.17-5H267.27L213.51,50h-87Z" transform="translate(-28.28 -42.11)"/><polygon class="cls-1" points="202.06 0 197.25 0 258 146.66 262.81 146.66 202.06 0"/><polygon class="cls-1" points="212.05 0 208.69 0 269.44 146.66 272.8 146.66 212.05 0"/><polygon class="cls-1" points="221.4 0 219.4 0 280.16 146.66 282.15 146.66 221.4 0"/><polygon class="cls-1" points="80.1 0 84.91 0 24.16 146.66 19.34 146.66 80.1 0"/><polygon class="cls-1" points="70.11 0 73.47 0 12.71 146.66 9.35 146.66 70.11 0"/><polygon class="cls-1" points="60.75 0 62.75 0 2 146.66 0 146.66 60.75 0"/></svg>